<?xml version="1.0" encoding="UTF-8" standalone="no"?>
<!-- Created with Inkscape (http://www.inkscape.org/) -->

<svg
   version="1.1"
   id="svg25"
   xml:space="preserve"
   width="351.60001"
   height="272.39999"
   viewBox="0 0 351.60001 272.39999"
   sodipodi:docname="lj.svg"
   inkscape:version="1.1.2 (0a00cf5339, 2022-02-04)"
   xmlns:inkscape="http://www.inkscape.org/namespaces/inkscape"
   xmlns:sodipodi="http://sodipodi.sourceforge.net/DTD/sodipodi-0.dtd"
   xmlns="http://www.w3.org/2000/svg"
   xmlns:svg="http://www.w3.org/2000/svg"><defs
     id="defs29" /><sodipodi:namedview
     id="namedview27"
     pagecolor="#ffffff"
     bordercolor="#666666"
     borderopacity="1.0"
     inkscape:pageshadow="2"
     inkscape:pageopacity="0.0"
     inkscape:pagecheckerboard="0"
     showgrid="false"
     inkscape:zoom="2.9515419"
     inkscape:cx="175.67089"
     inkscape:cy="136.2"
     inkscape:window-width="1858"
     inkscape:window-height="1016"
     inkscape:window-x="62"
     inkscape:window-y="27"
     inkscape:window-maximized="1"
     inkscape:current-layer="g31" /><g
     id="g31"
     inkscape:groupmode="layer"
     inkscape:label="ink_ext_XXXXXX"
     transform="matrix(1.3333333,0,0,-1.3333333,0,272.4)"><g
       id="g33"
       transform="scale(0.1)"><path
         d="M 162.004,1998 V 0"
         style="fill:none;stroke:#000000;stroke-width:7.5;stroke-linecap:butt;stroke-linejoin:miter;stroke-miterlimit:10;stroke-dasharray:none;stroke-opacity:1"
         id="path35" /><path
         d="M 162.004,540 H 2592"
         style="fill:none;stroke:#000000;stroke-width:7.5;stroke-linecap:butt;stroke-linejoin:miter;stroke-miterlimit:10;stroke-dasharray:none;stroke-opacity:1"
         id="path37" /><path
         d="m 162.004,1998 h 15 l -15,45 -15,-45 h 15"
         style="fill:#000000;fill-opacity:1;fill-rule:nonzero;stroke:none"
         id="path39" /><path
         d="m 2592,540 v 15 l 45,-15 -45,-15 v 15"
         style="fill:#000000;fill-opacity:1;fill-rule:nonzero;stroke:none"
         id="path41" /><path
         d="m 1098.9,540 15,-45 h -30 z"
         style="fill:#000000;fill-opacity:1;fill-rule:nonzero;stroke:none"
         id="path43" /><path
         d="M 1098.9,495 V 279"
         style="fill:none;stroke:#000000;stroke-width:7.5;stroke-linecap:butt;stroke-linejoin:miter;stroke-miterlimit:10;stroke-dasharray:none;stroke-opacity:1"
         id="path45" /><path
         d="m 1098.9,267.301 15,45 h -30 z"
         style="fill:#000000;fill-opacity:1;fill-rule:nonzero;stroke:none"
         id="path47" /><g
         id="g49"
         transform="scale(10)"><text
           transform="matrix(1,0,0,-1,0,156.6)"
           style="font-variant:normal;font-weight:normal;font-size:10.5px;font-family:Times;-inkscape-font-specification:Times-Roman;writing-mode:lr-tb;fill:#000000;fill-opacity:1;fill-rule:nonzero;stroke:none"
           id="text55"><tspan
             x="0"
             y="0"
             id="tspan51">u</tspan><tspan
             x="259.20001"
             y="110.7"
             id="tspan53">r</tspan></text><text
           transform="matrix(1,0,0,-1,111.095,37.80039)"
           style="font-variant:normal;font-weight:normal;font-size:10.5px;font-family:Symbol;-inkscape-font-specification:Symbol;writing-mode:lr-tb;fill:#000000;fill-opacity:1;fill-rule:nonzero;stroke:none"
           id="text61"><tspan
             x="0"
             y="0"
             id="tspan57">ε</tspan><tspan
             x="-22.460899"
             y="-8.0996103"
             id="tspan59">σ</tspan></text></g><path
         d="m 879.121,1864.93 2.164,-58.12 2.156,-56.18 2.161,-54.32 2.164,-52.5 2.156,-50.75 2.156,-49.05 2.164,-47.4 2.16,-45.83 2.164,-44.28 2.157,-42.79 2.16,-41.36 2.16,-39.96 2.16,-38.62 2.156,-37.31 2.164,-36.04 2.161,-34.82 2.156,-33.64 2.164,-32.5 2.156,-31.39 2.164,-30.3 2.156,-29.278 2.161,-28.273 2.164,-27.293 2.156,-26.356 2.16,-25.441 2.16,-24.563 2.16,-23.699 2.161,-22.879 2.16,-22.078 2.16,-21.301 2.164,-20.55 2.156,-19.825 2.156,-19.121 2.165,-18.437 2.16,-17.781 2.156,-17.141 2.164,-16.527 2.156,-15.922 2.164,-15.348 2.16,-14.789 2.157,-14.238 2.164,-13.723 2.16,-13.207 2.156,-12.715 2.164,-12.242 2.156,-11.777 2.161,-11.332 2.164,-10.899 2.156,-10.476 2.164,-10.075 2.156,-9.683 2.16,-9.301 2.164,-8.937 2.157,-8.579 2.16,-8.23 2.158,-7.902 2.16,-7.579 2.16,-7.265 2.16,-6.961 2.16,-6.672 2.16,-6.387 2.16,-6.113 2.16,-5.852 2.16,-5.589 2.16,-5.344 2.16,-5.106 2.16,-4.867 2.16,-4.644 2.16,-4.426 2.16,-4.223 2.16,-4.011 2.16,-3.813 2.16,-3.629 2.16,-3.441 2.16,-3.266 2.16,-3.094 2.16,-2.925 2.16,-2.762 2.16,-2.61 2.17,-2.453 2.15,-2.316 2.16,-2.172 2.16,-2.031 2.16,-1.906 2.16,-1.774 2.16,-1.656 2.16,-1.535 2.16,-1.418 2.16,-1.313 2.16,-1.203 2.16,-1.105 2.16,-0.996 2.16,-0.903 2.16,-0.816 2.16,-0.715 2.16,-0.641 2.16,-0.55 2.16,-0.477 2.16,-0.391 2.16,-0.32 2.16,-0.246 2.16,-0.176 2.16,-0.109 2.16,-0.047 2.16,0.016 2.16,0.074 2.16,0.136 2.16,0.192 2.16,0.242 2.16,0.293 2.16,0.344 2.16,0.394 2.16,0.434 2.16,0.484 2.16,0.524 2.16,0.562 2.16,0.602 2.16,0.644 2.16,0.68 2.16,0.707 2.16,0.75 2.16,0.77 2.16,0.812 2.16,0.832 2.16,0.863 2.17,0.891 2.15,0.918 2.16,0.937 2.17,0.965 2.15,0.985 2.16,1.004 2.16,1.027 2.16,1.043 2.17,1.066 2.15,1.078 2.16,1.098 2.16,1.109 2.16,1.133 2.16,1.137 2.16,1.156 2.16,1.168 2.16,1.18 2.16,1.184 2.16,1.203 2.16,1.207 2.16,1.218 2.16,1.227 2.16,1.234 2.16,1.243 2.16,1.25 2.16,1.253 2.16,1.258 2.16,1.266 2.16,1.269 2.16,1.274 2.17,1.273 2.15,1.285 2.16,1.286 2.16,1.285 2.16,1.289 2.16,1.289 2.16,1.293 2.16,1.293 2.16,1.289 2.16,1.301 2.16,1.293 2.16,1.293 2.16,1.296 2.16,1.29 2.16,1.293 2.16,1.289 2.16,1.289 2.16,1.285 2.16,1.289 2.17,1.277 2.15,1.278 2.16,1.281 2.17,1.273 2.15,1.27 2.16,1.269 2.16,1.266 2.16,1.262 2.16,1.257 2.16,1.25 2.16,1.25 2.16,1.247 2.16,1.238 2.16,1.238 2.16,1.234 2.16,1.227 2.16,1.219 2.16,1.215 2.16,1.214 2.16,1.208 2.16,1.203 2.16,1.195 2.16,1.191 2.16,1.188 2.16,1.176 2.16,1.175 2.16,1.168 2.16,1.168 2.16,1.157 2.16,1.148 2.17,1.148 2.15,1.137 2.16,1.137 2.16,1.125 2.16,1.121 2.16,1.117 2.16,1.106 2.16,1.101 2.16,1.102 2.16,1.086 2.16,1.086 2.16,1.078 2.16,1.07 2.16,1.067 2.16,1.058 2.16,1.055 2.16,1.043 2.16,1.039 2.16,1.035 2.16,1.027 2.16,1.02 2.16,1.012 2.16,1.007 2.16,0.996 2.16,1.004 2.16,0.985 2.16,0.98 2.16,0.981 2.16,0.965 2.16,0.96 2.16,0.961 2.16,0.95 2.16,0.941 2.16,0.938 2.16,0.933 2.16,0.922 2.16,0.926 2.16,0.906 2.16,0.906 2.16,0.903 2.16,0.89 2.16,0.891 2.16,0.883 2.16,0.875 2.16,0.863 2.16,0.863 2.17,0.856 2.15,0.855 2.16,0.844 2.17,0.84 2.15,0.832 2.16,0.824 2.16,0.82 2.16,0.817 2.17,0.808 2.15,0.801 2.16,0.801 2.16,0.793 2.16,0.785 2.16,0.781 2.16,0.778 2.16,0.765 2.16,0.762 2.16,0.758 2.16,0.75 2.16,0.746 2.16,0.742 2.16,0.734 2.16,0.731 2.16,0.723 2.16,0.718 2.16,0.719 2.16,0.707 2.16,0.703 2.16,0.699 2.16,0.692 2.17,0.683 2.15,0.684 2.16,0.68 2.16,0.676 2.16,0.664 2.16,0.664 2.16,0.652 2.16,0.652 2.16,0.653 2.16,0.636 2.16,0.641 2.16,0.633 2.16,0.625 2.16,0.625 2.16,0.617 2.16,0.609 2.16,0.614 2.16,0.605 2.16,0.602 2.17,0.593 2.15,0.59 2.16,0.586 2.17,0.582 2.15,0.574 2.16,0.575 2.16,0.566 2.16,0.567 2.16,0.554 2.16,0.559 2.16,0.551 2.16,0.546 2.16,0.543 2.16,0.539 2.16,0.536 2.16,0.527 2.16,0.527 2.16,0.524 2.16,0.515 2.16,0.512 2.16,0.516 2.16,0.508 2.16,0.496 2.16,0.5 2.16,0.496 2.17,0.488 2.15,0.488 2.16,0.485 2.16,0.476 2.16,0.477 2.17,0.472 2.15,0.469 2.16,0.465 2.16,0.461 2.16,0.457 2.16,0.453 2.16,0.453 2.16,0.446 2.16,0.445 2.16,0.437 2.16,0.442 2.16,0.433 2.16,0.43 2.16,0.426 2.16,0.422 2.16,0.422 2.16,0.414 2.16,0.422 2.16,0.402 2.16,0.41 2.16,0.402 2.16,0.407 2.16,0.398 2.16,0.391 2.16,0.394 2.16,0.387 2.16,0.387 2.16,0.382 2.16,0.383 2.16,0.375 2.16,0.371 2.16,0.375 2.16,0.368 2.16,0.367 2.16,0.363 2.16,0.359 2.16,0.356 2.16,0.355 2.16,0.356 2.16,0.347 2.16,0.348 2.16,0.344 2.16,0.348 2.16,0.332 2.16,0.336 2.16,0.335 2.17,0.332 2.15,0.325 2.16,0.324 2.17,0.328 2.15,0.32 2.16,0.321 2.16,0.316 2.16,0.313 2.17,0.308 2.15,0.313 2.16,0.304 2.16,0.305 2.16,0.305 2.16,0.297 2.16,0.296 2.16,0.297 2.16,0.289 2.16,0.293 2.16,0.289 2.16,0.29 2.16,0.281 2.16,0.285 2.16,0.277 2.16,0.278 2.16,0.273 2.16,0.277 2.16,0.27 2.16,0.273 2.16,0.266 2.16,0.262 2.17,0.269 2.15,0.258 2.16,0.258 2.16,0.262 2.16,0.253 2.16,0.25 2.16,0.254 2.16,0.25 2.16,0.25 2.16,0.246 2.16,0.247 2.16,0.242 2.16,0.242 2.16,0.234 2.16,0.239 2.16,0.234 2.16,0.234 2.16,0.235 2.16,0.23 2.17,0.231 2.15,0.222 2.16,0.227 2.17,0.223 2.15,0.218 2.16,0.223 2.16,0.219 2.16,0.218 2.16,0.211 2.16,0.219 2.16,0.211 2.16,0.211 2.16,0.211 2.16,0.203 2.16,0.211 2.16,0.199 2.16,0.203 2.16,0.203 2.16,0.2 2.16,0.199 2.16,0.195 2.16,0.196 2.16,0.195 2.16,0.195 2.16,0.192 2.17,0.191 2.15,0.184 2.16,0.191 2.16,0.187 2.16,0.18 2.17,0.184 2.15,0.179 2.16,0.184 2.16,0.176 2.16,0.18 2.16,0.175 2.16,0.176 2.16,0.176 2.16,0.172 2.16,0.172 2.16,0.168 2.16,0.171 2.16,0.165 2.16,0.167 2.16,0.165 2.16,0.168 2.16,0.167 2.16,0.161 2.16,0.156 2.16,0.16 2.16,0.16 2.16,0.153 2.16,0.16 2.16,0.152 2.16,0.156 2.16,0.153 2.16,0.152 2.16,0.148 2.16,0.153 2.16,0.152 2.16,0.141 2.16,0.144 2.16,0.149 2.16,0.144 2.16,0.145 2.16,0.14 2.16,0.141 2.16,0.145 2.16,0.132 2.16,0.145 2.16,0.137 2.16,0.136 2.16,0.137 2.16,0.133 2.16,0.129 2.16,0.136 2.17,0.133 2.15,0.133 2.16,0.125 2.17,0.133 2.15,0.129 2.16,0.125 2.16,0.129 2.16,0.121 2.17,0.121 2.15,0.129 2.16,0.121 2.16,0.121 2.16,0.121 2.16,0.117 2.16,0.121 2.16,0.121 2.16,0.118 2.16,0.117 2.16,0.117 2.16,0.113 2.16,0.114 2.16,0.113 2.16,0.113 2.16,0.117 2.16,0.106 2.16,0.113 2.16,0.109 2.16,0.11 2.16,0.109 2.16,0.106 2.17,0.109 2.15,0.106 2.16,0.105 2.16,0.102 2.16,0.105 2.16,0.106 2.16,0.101 2.16,0.102 2.16,0.097 2.16,0.102 2.16,0.101 2.16,0.102 2.16,0.098 2.16,0.093 2.16,0.102 2.16,0.098 2.16,0.089 2.16,0.098 2.16,0.094 2.17,0.094 2.15,0.097 2.16,0.094 2.17,0.086 2.15,0.094 2.16,0.086 2.16,0.093 2.16,0.086 2.16,0.094 2.16,0.09 2.16,0.086 2.16,0.086 2.16,0.086 2.16,0.09 2.16,0.082 2.16,0.082 2.16,0.089 2.16,0.083 2.16,0.082 2.16,0.082 2.16,0.086 2.16,0.078 2.16,0.082 2.16,0.078 2.16,0.082 2.17,0.078 2.15,0.078 2.16,0.078 2.16,0.078 2.16,0.078 2.17,0.079 2.15,0.078 2.16,0.074 2.16,0.078 2.16,0.07 2.16,0.075 2.16,0.074 2.16,0.074 2.16,0.07 2.16,0.075 2.16,0.074 2.16,0.07 2.16,0.066 2.16,0.079 2.16,0.062 2.16,0.074 2.16,0.071 2.16,0.066 2.16,0.066 2.16,0.071 2.16,0.07 2.16,0.063 2.16,0.066 2.16,0.07 2.16,0.063 2.16,0.062 2.16,0.067 2.16,0.066 2.16,0.063 2.16,0.066 2.16,0.059 2.16,0.066 2.16,0.059 2.16,0.062 2.16,0.067 2.16,0.058 2.16,0.063 2.16,0.058 2.16,0.059 2.16,0.058 2.16,0.059 2.16,0.062 2.16,0.059 2.16,0.055 2.16,0.062 2.16,0.055 2.17,0.059 2.15,0.05 2.16,0.063 2.17,0.051 2.15,0.058 2.16,0.055 2.16,0.055 2.16,0.058 2.17,0.047 2.15,0.059 2.16,0.054 2.16,0.055 2.16,0.047 2.16,0.055 2.16,0.054 2.16,0.047 2.16,0.055 2.16,0.051 2.16,0.05 2.16,0.051 2.16,0.047 2.16,0.055 2.16,0.051 2.16,0.046 2.16,0.047 2.16,0.051 2.16,0.051 2.16,0.043 2.16,0.054 2.16,0.043 2.17,0.047 2.15,0.051 2.16,0.043 2.16,0.051 2.16,0.043 2.16,0.043 2.16,0.051 2.16,0.043 2.16,0.043 2.16,0.042 2.16,0.043 2.16,0.051 2.16,0.043 2.16,0.039 2.16,0.043 2.16,0.047 2.16,0.043 2.16,0.043 2.16,0.039 2.17,0.047 2.15,0.039 2.16,0.043 2.17,0.039 2.15,0.043 2.16,0.039 2.16,0.039 2.16,0.043 2.16,0.039 2.16,0.039 2.16,0.039 2.16,0.039 2.16,0.039 2.16,0.04 2.16,0.039 2.16,0.039 2.16,0.035 2.16,0.039 2.16,0.039 2.16,0.039 2.16,0.035 2.16,0.039 2.16,0.031 2.16,0.04 2.16,0.035 2.17,0.039 2.15,0.035 2.16,0.035 2.16,0.039 2.16,0.031 2.17,0.036 2.15,0.035 2.16,0.035 2.16,0.035 2.16,0.031 2.16,0.035 2.16,0.039 2.16,0.032 2.16,0.031 2.16,0.035 2.16,0.035 2.16,0.028 2.16,0.035 2.16,0.031 2.16,0.031 2.16,0.035 2.16,0.032 2.16,0.031 2.16,0.031 2.16,0.031 2.16,0.032 2.16,0.031 2.16,0.031 2.16,0.031 2.16,0.028 2.16,0.031 2.16,0.027 2.16,0.036 2.16,0.031 2.16,0.027 2.16,0.027 2.16,0.032 2.16,0.031 2.16,0.027 2.16,0.032 2.16,0.027 2.16,0.023 2.16,0.032 2.16,0.027 2.16,0.023 2.16,0.032 2.16,0.031 2.16,0.023 2.16,0.028 2.16,0.027 2.16,0.027 2.17,0.024 2.15,0.031 2.16,0.023 2.17,0.032 2.15,0.023 2.16,0.027 2.16,0.028 2.16,0.023 2.17,0.024 2.15,0.031 2.16,0.023 2.16,0.024 2.16,0.023 2.16,0.028 2.16,0.023 2.16,0.023 2.16,0.024 2.16,0.023 2.16,0.028 2.16,0.023 2.16,0.024 2.16,0.027 2.16,0.016 2.16,0.027 2.16,0.023 2.16,0.024 2.16,0.027 2.16,0.02 2.16,0.023 2.16,0.024 2.17,0.019 2.15,0.023 2.16,0.02 2.16,0.023 2.16,0.028 2.16,0.019 2.16,0.024 2.16,0.019 2.16,0.02 2.16,0.023 2.16,0.02 2.16,0.019 2.16,0.028"
         style="fill:none;stroke:#000000;stroke-width:7.5;stroke-linecap:butt;stroke-linejoin:miter;stroke-miterlimit:10;stroke-dasharray:none;stroke-opacity:1"
         id="path63" /></g></g></svg>
