<?xml version="1.0" encoding="UTF-8" standalone="no"?>
<!-- Created with Inkscape (http://www.inkscape.org/) -->

<svg
   version="1.1"
   id="svg504"
   xml:space="preserve"
   width="440.58667"
   height="252.90668"
   viewBox="0 0 440.58667 252.90668"
   sodipodi:docname="sine.svg"
   inkscape:version="1.1.2 (0a00cf5339, 2022-02-04)"
   xmlns:inkscape="http://www.inkscape.org/namespaces/inkscape"
   xmlns:sodipodi="http://sodipodi.sourceforge.net/DTD/sodipodi-0.dtd"
   xmlns="http://www.w3.org/2000/svg"
   xmlns:svg="http://www.w3.org/2000/svg"><defs
     id="defs508" /><sodipodi:namedview
     id="namedview506"
     pagecolor="#ffffff"
     bordercolor="#666666"
     borderopacity="1.0"
     inkscape:pageshadow="2"
     inkscape:pageopacity="0.0"
     inkscape:pagecheckerboard="0"
     showgrid="false"
     inkscape:zoom="3.0459387"
     inkscape:cx="220.12918"
     inkscape:cy="126.39782"
     inkscape:window-width="1858"
     inkscape:window-height="1016"
     inkscape:window-x="62"
     inkscape:window-y="27"
     inkscape:window-maximized="1"
     inkscape:current-layer="g510" /><g
     id="g510"
     inkscape:groupmode="layer"
     inkscape:label="ink_ext_XXXXXX"
     transform="matrix(1.3333333,0,0,-1.3333333,0,252.90667)"><g
       id="g512"
       transform="scale(0.1)"><path
         d="m 144,504 1.918,10.938 1.918,11.042 1.926,11.145 1.918,11.25 1.918,11.336 1.922,11.437 1.918,11.524 1.921,11.609 1.918,11.692 1.922,11.773 1.918,11.844 1.926,11.918 1.918,11.984 1.918,12.051 1.918,12.109 1.922,12.161 1.922,12.222 1.918,12.266 1.918,12.316 1.921,12.352 1.922,12.398 1.918,12.426 1.922,12.461 1.918,12.484 1.918,12.508 1.926,12.527 1.918,12.543 1.918,12.555 1.922,12.559 1.918,12.57 1.922,12.566 1.918,12.559 1.921,12.555 1.918,12.543 1.922,12.531 1.922,12.504 1.918,12.484 1.918,12.461 1.922,12.43 1.922,12.394 1.918,12.353 1.922,12.32 1.918,12.26 1.921,12.22 1.918,12.17 1.922,12.11 1.918,12.05 1.918,11.98 1.926,11.92 1.918,11.84 1.918,11.78 1.922,11.68 1.918,11.62 1.922,11.52 1.922,11.44 1.918,11.34 1.918,11.25 1.921,11.14 1.922,11.04 1.918,10.94 1.918,10.82 1.918,10.72 1.926,10.6 1.918,10.48 1.922,10.35 1.918,10.23 1.918,10.1 1.926,9.97 1.917,9.84 1.918,9.7 1.918,9.55 1.926,9.41 1.918,9.27 1.918,9.12 1.922,8.95 1.918,8.82 1.922,8.65 1.922,8.48 1.918,8.33 1.918,8.16 1.918,8 1.925,7.82 1.918,7.65 1.918,7.47 1.918,7.3 1.926,7.12 1.918,6.93 1.922,6.75 1.918,6.57 1.918,6.38 1.926,6.19 1.918,5.99 1.918,5.8 1.918,5.61 1.925,5.41 1.918,5.21 1.918,5.01 1.918,4.81 1.922,4.61 1.922,4.4 1.922,4.19 1.918,3.99 1.918,3.78 1.918,3.57 1.926,3.36 1.918,3.14 1.918,2.94 1.917,2.72 1.926,2.5 1.918,2.29 1.918,2.08 1.922,1.85 1.918,1.64 1.926,1.42 1.918,1.21 1.918,0.99 1.918,0.76 1.926,0.55 1.917,0.33 1.918,0.11 1.918,-0.11 1.922,-0.33 1.922,-0.55 1.922,-0.76 1.918,-0.99 1.918,-1.21 1.918,-1.42 1.926,-1.64 1.918,-1.85 1.918,-2.08 1.922,-2.29 1.918,-2.5 1.921,-2.72 1.918,-2.94 1.922,-3.14 1.918,-3.36 1.926,-3.57 1.918,-3.78 1.918,-3.99 1.918,-4.19 1.922,-4.4 1.922,-4.61 1.918,-4.81 1.918,-5.01 1.921,-5.21 1.922,-5.41 1.918,-5.61 1.922,-5.8 1.918,-5.99 1.918,-6.19 1.926,-6.38 1.918,-6.57 1.918,-6.75 1.922,-6.93 1.918,-7.12 1.922,-7.3 1.918,-7.47 1.921,-7.65 1.918,-7.82 1.922,-8 1.922,-8.16 1.918,-8.33 1.918,-8.48 1.922,-8.65 1.922,-8.82 1.918,-8.95 1.922,-9.12 1.918,-9.27 1.921,-9.41 1.918,-9.55 1.922,-9.7 1.918,-9.84 1.918,-9.97 1.926,-10.1 1.918,-10.23 1.918,-10.35 1.922,-10.48 1.918,-10.6 1.922,-10.72 1.922,-10.82 1.918,-10.94 1.918,-11.04 1.921,-11.14 1.922,-11.25 1.918,-11.34 1.918,-11.44 1.918,-11.52 1.926,-11.62 1.918,-11.68 1.922,-11.78 1.918,-11.84 1.918,-11.92 1.926,-11.98 1.917,-12.05 1.918,-12.11 1.918,-12.17 1.926,-12.22 1.918,-12.26 1.918,-12.32 1.922,-12.353 1.918,-12.394 1.922,-12.43 1.922,-12.461 1.918,-12.484 1.918,-12.504 1.918,-12.531 1.925,-12.543 1.918,-12.555 1.918,-12.559 1.918,-12.566 1.926,-12.57 1.918,-12.559 1.922,-12.555 1.918,-12.543 1.918,-12.527 1.926,-12.508 1.918,-12.484 1.918,-12.461 1.918,-12.426 1.925,-12.398 1.918,-12.352 1.918,-12.316 1.918,-12.266 1.922,-12.222 1.922,-12.161 1.922,-12.109 1.918,-12.051 1.918,-11.984 1.918,-11.918 1.926,-11.844 1.918,-11.773 1.918,-11.692 1.917,-11.609 1.926,-11.524 1.918,-11.437 1.918,-11.336 1.922,-11.25 1.918,-11.145 1.926,-11.042 1.918,-10.938 1.918,-10.824 1.918,-10.719 1.926,-10.598 1.917,-10.476 1.918,-10.36 1.918,-10.23 1.922,-10.102 1.922,-9.968 1.922,-9.832 1.918,-9.7 1.918,-9.554 1.918,-9.41 1.926,-9.266 1.918,-9.117 1.918,-8.961 1.922,-8.809 1.918,-8.652 1.921,-8.484 1.918,-8.329 1.922,-8.164 1.918,-7.992 1.926,-7.82 1.918,-7.653 1.918,-7.472 1.918,-7.297 1.922,-7.121 1.922,-6.934 1.918,-6.754 1.918,-6.566 1.921,-6.375 1.922,-6.188 1.918,-5.996 1.922,-5.8 1.918,-5.614 1.918,-5.406 1.926,-5.211 1.918,-5.012 1.918,-4.808 1.922,-4.606 1.918,-4.398 1.922,-4.195 1.918,-3.989 1.921,-3.777 1.918,-3.57 1.922,-3.36 1.922,-3.144 1.918,-2.934 1.918,-2.723 1.922,-2.503 1.922,-2.289 1.918,-2.079 1.922,-1.851 1.918,-1.645 1.921,-1.418 1.918,-1.207 1.922,-0.984 1.918,-0.77 1.918,-0.546 1.926,-0.333 L 720,144 l 1.918,0.105 1.922,0.333 1.918,0.546 1.922,0.77 1.922,0.984 1.918,1.207 1.918,1.418 1.921,1.645 1.922,1.851 1.918,2.079 1.918,2.289 1.918,2.503 1.926,2.723 1.918,2.934 1.922,3.144 1.918,3.36 1.918,3.57 1.926,3.777 1.917,3.989 1.918,4.195 1.918,4.398 1.926,4.606 1.918,4.808 1.918,5.012 1.922,5.211 1.918,5.406 1.922,5.614 1.922,5.8 1.918,5.996 1.918,6.188 1.918,6.375 1.925,6.566 1.918,6.754 1.918,6.934 1.918,7.121 1.926,7.297 1.918,7.472 1.922,7.653 1.918,7.82 1.918,7.992 1.926,8.164 1.918,8.329 1.918,8.484 1.918,8.652 1.925,8.809 1.918,8.961 1.918,9.117 1.918,9.266 1.922,9.41 1.922,9.554 1.922,9.7 1.918,9.832 1.918,9.968 1.918,10.102 1.926,10.23 1.918,10.36 1.918,10.476 1.917,10.598 1.926,10.719 1.918,10.824 1.918,10.938 1.922,11.042 1.918,11.145 1.926,11.25 1.918,11.336 1.918,11.437 1.918,11.524 1.926,11.609 1.917,11.692 1.918,11.773 1.918,11.844 1.922,11.918 1.922,11.984 1.922,12.051 1.918,12.109 1.918,12.161 1.918,12.222 1.926,12.266 1.918,12.316 1.918,12.352 1.922,12.398 1.918,12.426 1.921,12.461 1.918,12.484 1.922,12.508 1.918,12.527 1.926,12.543 1.918,12.555 1.918,12.559 1.918,12.57 1.922,12.566 1.922,12.559 1.918,12.555 1.918,12.543 1.921,12.531 1.922,12.504 1.918,12.484 1.922,12.461 1.918,12.43 1.918,12.394 1.926,12.353 1.918,12.32 1.918,12.26 1.922,12.22 1.918,12.17 1.922,12.11 1.918,12.05 1.921,11.98 1.918,11.92 1.922,11.84 1.922,11.78 1.918,11.68 1.918,11.62 1.922,11.52 1.922,11.44 1.918,11.34 1.922,11.25 1.918,11.14 1.921,11.04 1.918,10.94 1.922,10.82 1.918,10.72 1.918,10.6 1.926,10.48 1.918,10.35 1.918,10.23 1.922,10.1 1.918,9.97 1.922,9.84 1.922,9.7 1.918,9.55 1.918,9.41 1.921,9.27 1.922,9.12 1.918,8.95 1.918,8.82 1.918,8.65 1.926,8.48 1.918,8.33 1.922,8.16 1.918,8 1.918,7.82 1.926,7.65 1.917,7.47 1.918,7.3 1.922,7.12 1.92,6.93 1.92,6.75 1.92,6.57 1.92,6.38 1.92,6.19 1.92,5.99 1.92,5.8 1.92,5.61 1.92,5.41 1.92,5.21 1.92,5.01 1.92,4.81 1.92,4.61 1.92,4.4 1.92,4.19 1.92,3.99 1.92,3.78 1.92,3.57 1.92,3.36 1.92,3.14 1.92,2.94 1.92,2.72 1.92,2.5 1.92,2.29 1.92,2.08 1.92,1.85 1.92,1.64 1.92,1.42 1.92,1.21 1.92,0.99 1.92,0.76 1.92,0.55 1.92,0.33 1.92,0.11 1.92,-0.11 1.92,-0.33 1.92,-0.55 1.92,-0.76 1.92,-0.99 1.92,-1.21 1.92,-1.42 1.92,-1.64 1.92,-1.85 1.92,-2.08 1.92,-2.29 1.92,-2.5 1.92,-2.72 1.92,-2.94 1.92,-3.14 1.92,-3.36 1.92,-3.57 1.92,-3.78 1.92,-3.99 1.92,-4.19 1.92,-4.4 1.92,-4.61 1.92,-4.81 1.92,-5.01 1.92,-5.21 1.92,-5.41 1.92,-5.61 1.92,-5.8 1.92,-5.99 1.92,-6.19 1.92,-6.38 1.92,-6.57 1.92,-6.75 1.92,-6.93 1.92,-7.12 1.92,-7.3 1.92,-7.47 1.92,-7.65 1.92,-7.82 1.92,-8 1.92,-8.16 1.92,-8.33 1.92,-8.48 1.92,-8.65 1.92,-8.82 1.92,-8.95 1.92,-9.12 1.92,-9.27 1.92,-9.41 1.92,-9.55 1.92,-9.7 1.92,-9.84 1.92,-9.97 1.92,-10.1 1.92,-10.23 1.92,-10.35 1.92,-10.48 1.92,-10.6 1.92,-10.72 1.92,-10.82 1.92,-10.94 1.92,-11.04 1.92,-11.14 1.92,-11.25 1.92,-11.34 1.92,-11.44 1.92,-11.52 1.92,-11.62 1.92,-11.68 1.92,-11.78 1.92,-11.84 1.92,-11.92 1.92,-11.98 1.92,-12.05 1.92,-12.11 1.92,-12.17 1.92,-12.22 1.92,-12.26 1.92,-12.32 1.92,-12.353 1.92,-12.394 1.92,-12.43 1.92,-12.461 1.92,-12.484 1.92,-12.504 1.92,-12.531 1.92,-12.543 1.92,-12.555 1.92,-12.559 1.92,-12.566 1.92,-12.57 1.92,-12.559 1.92,-12.555 1.92,-12.543 1.92,-12.527 1.92,-12.508 1.92,-12.484 1.92,-12.461 1.92,-12.426 1.92,-12.398 1.92,-12.352 1.92,-12.316 1.92,-12.266 1.92,-12.222 1.92,-12.161 1.92,-12.109 1.92,-12.051 1.92,-11.984 1.92,-11.918 1.92,-11.844 1.92,-11.773 1.92,-11.692 1.92,-11.609 1.92,-11.524 1.92,-11.437 1.92,-11.336 1.92,-11.25 1.92,-11.145 1.92,-11.042 1.92,-10.938 1.92,-10.824 1.92,-10.719 1.92,-10.598 1.92,-10.476 1.92,-10.36 1.92,-10.23 1.92,-10.102 1.92,-9.968 1.92,-9.832 1.92,-9.7 1.92,-9.554 1.92,-9.41 1.92,-9.266 1.92,-9.117 1.92,-8.961 1.92,-8.809 1.92,-8.652 1.92,-8.484 1.92,-8.329 1.92,-8.164 1.92,-7.992 1.92,-7.82 1.92,-7.653 1.92,-7.472 1.92,-7.297 1.92,-7.121 1.92,-6.934 1.92,-6.754 1.92,-6.566 1.92,-6.375 1.92,-6.188 1.92,-5.996 1.92,-5.8 1.92,-5.614 1.92,-5.406 1.92,-5.211 1.92,-5.012 1.92,-4.808 1.92,-4.606 1.92,-4.398 1.92,-4.195 1.92,-3.989 1.92,-3.777 1.92,-3.57 1.92,-3.36 1.92,-3.144 1.92,-2.934 1.92,-2.723 1.92,-2.503 1.92,-2.289 1.92,-2.079 1.92,-1.851 1.92,-1.645 1.92,-1.418 1.92,-1.207 1.92,-0.984 1.92,-0.77 1.92,-0.546 1.92,-0.333 1.92,-0.105 1.92,0.105 1.92,0.333 1.92,0.546 1.92,0.77 1.92,0.984 1.92,1.207 1.92,1.418 1.92,1.645 1.92,1.851 1.92,2.079 1.92,2.289 1.92,2.503 1.92,2.723 1.92,2.934 1.92,3.144 1.92,3.36 1.92,3.57 1.92,3.777 1.92,3.989 1.92,4.195 1.92,4.398 1.92,4.606 1.92,4.808 1.92,5.012 1.92,5.211 1.92,5.406 1.92,5.614 1.92,5.8 1.92,5.996 1.92,6.188 1.92,6.375 1.92,6.566 1.92,6.754 1.92,6.934 1.92,7.121 1.92,7.297 1.92,7.472 1.92,7.653 1.92,7.82 1.92,7.992 1.92,8.164 1.92,8.329 1.92,8.484 1.92,8.652 1.92,8.809 1.92,8.961 1.92,9.117 1.92,9.266 1.92,9.41 1.92,9.554 1.92,9.7 1.92,9.832 1.92,9.968 1.92,10.102 1.92,10.23 1.92,10.36 1.92,10.476 1.92,10.598 1.92,10.719 1.92,10.824 1.92,10.938 1.92,11.042 1.92,11.145 1.92,11.25 1.92,11.336 1.92,11.437 1.92,11.524 1.92,11.609 1.92,11.692 1.92,11.773 1.92,11.844 1.92,11.918 1.92,11.984 1.92,12.051 1.92,12.109 1.92,12.161 1.92,12.222 1.92,12.266 1.92,12.316 1.92,12.352 1.92,12.398 1.92,12.426 1.92,12.461 1.92,12.484 1.92,12.508 1.92,12.527 1.92,12.543 1.92,12.555 1.92,12.559 1.92,12.57 1.92,12.566 1.92,12.559 1.92,12.555 1.92,12.543 1.92,12.531 1.92,12.504 1.92,12.484 1.92,12.461 1.92,12.43 1.92,12.394 1.92,12.353 1.92,12.32 1.92,12.26 1.92,12.22 1.92,12.17 1.92,12.11 1.92,12.05 1.92,11.98 1.92,11.92 1.92,11.84 1.92,11.78 1.92,11.68 1.92,11.62 1.92,11.52 1.92,11.44 1.92,11.34 1.92,11.25 1.92,11.14 1.92,11.04 1.92,10.94 1.92,10.82 1.92,10.72 1.92,10.6 1.92,10.48 1.92,10.35 1.92,10.23 1.92,10.1 1.92,9.97 1.92,9.84 1.92,9.7 1.92,9.55 1.92,9.41 1.92,9.27 1.92,9.12 1.92,8.95 1.92,8.82 1.92,8.65 1.92,8.48 1.92,8.33 1.92,8.16 1.92,8 1.92,7.82 1.92,7.65 1.92,7.47 1.92,7.3 1.92,7.12 1.92,6.93 1.92,6.75 1.92,6.57 1.92,6.38 1.92,6.19 1.92,5.99 1.92,5.8 1.92,5.61 1.92,5.41 1.92,5.21 1.92,5.01 1.92,4.81 1.92,4.61 1.92,4.4 1.92,4.19 1.92,3.99 1.92,3.78 1.92,3.57 1.92,3.36 1.92,3.14 1.92,2.94 1.92,2.72 1.92,2.5 1.92,2.29 1.92,2.08 1.92,1.85 1.92,1.64 1.92,1.42 1.92,1.21 1.92,0.99 1.92,0.76 1.92,0.55 1.92,0.33 1.92,0.11 1.92,-0.11 1.92,-0.33 1.92,-0.55 1.92,-0.76 1.92,-0.99 1.92,-1.21 1.92,-1.42 1.92,-1.64 1.92,-1.85 1.92,-2.08 1.92,-2.29 1.92,-2.5 1.92,-2.72 1.92,-2.94 1.92,-3.14 1.92,-3.36 1.92,-3.57 1.92,-3.78 1.92,-3.99 1.92,-4.19 1.92,-4.4 1.92,-4.61 1.92,-4.81 1.92,-5.01 1.92,-5.21 1.92,-5.41 1.92,-5.61 1.92,-5.8 1.92,-5.99 1.92,-6.19 1.92,-6.38 1.92,-6.57 1.92,-6.75 1.92,-6.93 1.92,-7.12 1.92,-7.3 1.92,-7.47 1.92,-7.65 1.92,-7.82 1.92,-8 1.92,-8.16 1.92,-8.33 1.92,-8.48 1.92,-8.65 1.92,-8.82 1.92,-8.95 1.92,-9.12 1.92,-9.27 1.92,-9.41 1.92,-9.55 1.92,-9.7 1.92,-9.84 1.92,-9.97 1.92,-10.1 1.92,-10.23 1.92,-10.35 1.92,-10.48 1.92,-10.6 1.92,-10.72 1.92,-10.82 1.92,-10.94 1.92,-11.04 1.92,-11.14 1.92,-11.25 1.92,-11.34 1.92,-11.44 1.92,-11.52 1.92,-11.62 1.92,-11.68 1.92,-11.78 1.92,-11.84 1.92,-11.92 1.92,-11.98 1.92,-12.05 1.92,-12.11 1.92,-12.17 1.92,-12.22 1.92,-12.26 1.92,-12.32 1.92,-12.353 1.92,-12.394 1.92,-12.43 1.92,-12.461 1.92,-12.484 1.92,-12.504 1.92,-12.531 1.92,-12.543 1.92,-12.555 1.92,-12.559 1.92,-12.566 1.92,-12.57 1.92,-12.559 1.92,-12.555 1.92,-12.543 1.92,-12.527 1.92,-12.508 1.92,-12.484 1.92,-12.461 1.92,-12.426 1.92,-12.398 1.92,-12.352 1.92,-12.316 1.92,-12.266 1.92,-12.222 1.92,-12.161 1.92,-12.109 1.92,-12.051 1.92,-11.984 1.92,-11.918 1.92,-11.844 1.92,-11.773 1.92,-11.692 1.92,-11.609 1.92,-11.524 1.92,-11.437 1.92,-11.336 1.92,-11.25 1.92,-11.145 1.92,-11.042 1.92,-10.938 1.92,-10.824 1.92,-10.719 1.92,-10.598 1.92,-10.476 1.92,-10.36 1.92,-10.23 1.92,-10.102 1.92,-9.968 1.92,-9.832 1.92,-9.7 1.92,-9.554 1.92,-9.41 1.92,-9.266 1.92,-9.117 1.92,-8.961 1.92,-8.809 1.92,-8.652 1.92,-8.484 1.92,-8.329 1.92,-8.164 1.92,-7.992 1.92,-7.82 1.92,-7.653 1.92,-7.472 1.92,-7.297 1.92,-7.121 1.92,-6.934 1.92,-6.754 1.92,-6.566 1.92,-6.375 1.92,-6.188 1.92,-5.996 1.92,-5.8 1.92,-5.614 1.92,-5.406 1.92,-5.211 1.92,-5.012 1.92,-4.808 1.92,-4.606 1.92,-4.398 1.92,-4.195 1.92,-3.989 1.92,-3.777 1.92,-3.57 1.92,-3.36 1.92,-3.144 1.92,-2.934 1.92,-2.723 1.92,-2.503 1.92,-2.289 1.92,-2.079 1.92,-1.851 1.92,-1.645 1.92,-1.418 1.92,-1.207 1.92,-0.984 1.92,-0.77 1.92,-0.546 1.92,-0.333 1.92,-0.105 1.92,0.105 1.92,0.333 1.92,0.546 1.92,0.77 1.92,0.984 1.92,1.207 1.92,1.418 1.92,1.645 1.92,1.851 1.92,2.079 1.92,2.289 1.92,2.503 1.92,2.723 1.92,2.934 1.92,3.144 1.92,3.36 1.92,3.57 1.92,3.777 1.92,3.989 1.92,4.195 1.92,4.398 1.92,4.606 1.92,4.808 1.92,5.012 1.92,5.211 1.92,5.406 1.92,5.614 1.92,5.8 1.92,5.996 1.92,6.188 1.92,6.375 1.92,6.566 1.92,6.754 1.92,6.934 1.92,7.121 1.92,7.297 1.92,7.472 1.92,7.653 1.92,7.82 1.92,7.992 1.92,8.164 1.92,8.329 1.92,8.484 1.92,8.652 1.92,8.809 1.92,8.961 1.92,9.117 1.92,9.266 1.92,9.41 1.92,9.554 1.92,9.7 1.92,9.832 1.92,9.968 1.92,10.102 1.92,10.23 1.92,10.36 1.92,10.476 1.92,10.598 1.92,10.719 1.92,10.824 1.92,10.938 1.92,11.042 1.92,11.145 1.92,11.25 1.92,11.336 1.92,11.437 1.92,11.524 1.92,11.609 1.92,11.692 1.92,11.773 1.92,11.844 1.92,11.918 1.92,11.984 1.92,12.051 1.92,12.109 1.92,12.161 1.92,12.222 1.92,12.266 1.92,12.316 1.92,12.352 1.92,12.398 1.92,12.426 1.92,12.461 1.92,12.484 1.92,12.508 1.92,12.527 1.92,12.543 1.92,12.555 1.92,12.559 1.92,12.57 1.92,12.566 1.92,12.559 1.92,12.555 1.92,12.543 1.92,12.531 1.92,12.504 1.92,12.484 1.92,12.461 1.92,12.43 1.92,12.394 1.92,12.353 1.92,12.32 1.92,12.26 1.92,12.22 1.92,12.17 1.92,12.11 1.92,12.05 1.92,11.98 1.92,11.92 1.92,11.84 1.92,11.78 1.92,11.68 1.92,11.62 1.92,11.52 1.92,11.44 1.92,11.34 1.92,11.25 1.92,11.14 1.92,11.04 1.92,10.94 1.92,10.82 1.92,10.72 1.92,10.6 1.92,10.48 1.92,10.35 1.92,10.23 1.92,10.1 1.92,9.97 1.92,9.84 1.92,9.7 1.92,9.55 1.92,9.41 1.92,9.27 1.92,9.12 1.92,8.95 1.92,8.82 1.92,8.65 1.92,8.48 1.92,8.33 1.92,8.16 1.92,8 1.92,7.82 1.92,7.65 1.92,7.47 1.92,7.3 1.92,7.12 1.92,6.93 1.92,6.75 1.92,6.57 1.92,6.38 1.92,6.19 1.92,5.99 1.92,5.8 1.92,5.61 1.92,5.41 1.92,5.21 1.92,5.01 1.92,4.81 1.92,4.61 1.92,4.4 1.92,4.19 1.92,3.99 1.92,3.78 1.92,3.57 1.92,3.36 1.92,3.14 1.92,2.94 1.92,2.72 1.92,2.5 1.92,2.29 1.92,2.08 1.92,1.85 1.92,1.64 1.92,1.42 1.92,1.21 1.92,0.99 1.92,0.76 1.92,0.55 1.92,0.33 1.92,0.11 1.92,-0.11 1.92,-0.33 1.92,-0.55 1.92,-0.76 1.92,-0.99 1.92,-1.21 1.92,-1.42 1.92,-1.64 1.92,-1.85 1.92,-2.08 1.92,-2.29 1.92,-2.5 1.92,-2.72 1.92,-2.94 1.92,-3.14 1.92,-3.36 1.92,-3.57 1.92,-3.78 1.92,-3.99 1.92,-4.19 1.92,-4.4 1.92,-4.61 1.92,-4.81 1.92,-5.01 1.92,-5.21 1.92,-5.41 1.92,-5.61 1.92,-5.8 1.92,-5.99 1.92,-6.19 1.92,-6.38 1.92,-6.57 1.92,-6.75 1.92,-6.93 1.92,-7.12 1.92,-7.3 1.92,-7.47 1.92,-7.65 1.92,-7.82 1.92,-8 1.92,-8.16 1.92,-8.33 1.92,-8.48 1.92,-8.65 1.92,-8.82 1.92,-8.95 1.92,-9.12 1.92,-9.27 1.92,-9.41 1.92,-9.55 1.92,-9.7 1.92,-9.84 1.92,-9.97 1.92,-10.1 1.92,-10.23 1.92,-10.35 1.92,-10.48 1.92,-10.6 1.92,-10.72 1.92,-10.82 1.92,-10.94 1.92,-11.04 1.92,-11.14 1.92,-11.25 1.92,-11.34 1.92,-11.44 1.92,-11.52 1.92,-11.62 1.92,-11.68 1.92,-11.78 1.92,-11.84 1.92,-11.92 1.92,-11.98 1.92,-12.05 1.92,-12.11 1.92,-12.17 1.92,-12.22 1.92,-12.26 1.92,-12.32 1.92,-12.353 1.92,-12.394 1.92,-12.43 1.92,-12.461 1.92,-12.484 1.92,-12.504 1.92,-12.531 1.92,-12.543 1.92,-12.555 1.92,-12.559 1.92,-12.566 1.92,-12.57 1.92,-12.559 1.92,-12.555 1.92,-12.543 1.92,-12.527 1.92,-12.508 1.92,-12.484 1.92,-12.461 1.92,-12.426 1.92,-12.398 1.92,-12.352 1.92,-12.316 1.92,-12.266 1.92,-12.222 1.92,-12.161 1.92,-12.109 1.92,-12.051 1.92,-11.984 1.92,-11.918 1.92,-11.844 1.92,-11.773 1.92,-11.692 1.92,-11.609 1.92,-11.524 1.92,-11.437 1.92,-11.336 1.92,-11.25 1.92,-11.145 1.92,-11.042 1.92,-10.938 1.92,-10.824 1.92,-10.719 1.92,-10.598 1.92,-10.476 1.92,-10.36 1.92,-10.23 1.92,-10.102 1.92,-9.968 1.92,-9.832 1.92,-9.7 1.92,-9.554 1.92,-9.41 1.92,-9.266 1.92,-9.117 1.92,-8.961 1.92,-8.809 1.92,-8.652 1.92,-8.484 1.92,-8.329 1.92,-8.164 1.92,-7.992 1.92,-7.82 1.92,-7.653 1.92,-7.472 1.92,-7.297 1.92,-7.121 1.92,-6.934 1.92,-6.754 1.92,-6.566 1.92,-6.375 1.92,-6.188 1.92,-5.996 1.92,-5.8 1.92,-5.614 1.92,-5.406 1.92,-5.211 1.92,-5.012 1.92,-4.808 1.92,-4.606 1.92,-4.398 1.92,-4.195 1.92,-3.989 1.92,-3.777 1.92,-3.57 1.92,-3.36 1.92,-3.144 1.92,-2.934 1.92,-2.723 1.92,-2.503 1.92,-2.289 1.92,-2.079 1.92,-1.851 1.92,-1.645 1.92,-1.418 1.92,-1.207 1.92,-0.984 1.92,-0.77 1.92,-0.546 1.92,-0.333 1.92,-0.105 1.92,0.105 1.92,0.333 1.92,0.546 1.92,0.77 1.92,0.984 1.92,1.207 1.92,1.418 1.92,1.645 1.92,1.851 1.92,2.079 1.92,2.289 1.92,2.503 1.92,2.723 1.92,2.934 1.92,3.144 1.92,3.36 1.92,3.57 1.92,3.777 1.92,3.989 1.92,4.195 1.92,4.398 1.92,4.606 1.92,4.808 1.92,5.012 1.92,5.211 1.92,5.406 1.92,5.614 1.92,5.8 1.92,5.996 1.92,6.188 1.92,6.375 1.92,6.566 1.92,6.754 1.92,6.934 1.92,7.121 1.92,7.297 1.92,7.472 1.92,7.653 1.92,7.82 1.92,7.992 1.92,8.164 1.92,8.329 1.92,8.484 1.92,8.652 1.92,8.809 1.92,8.961 1.92,9.117 1.92,9.266 1.92,9.41 1.92,9.554 1.92,9.7 1.92,9.832 1.92,9.968 1.92,10.102 1.92,10.23 1.92,10.36 1.92,10.476 1.92,10.598 1.92,10.719 1.92,10.824 1.92,10.938 1.92,11.042 1.92,11.145 1.92,11.25 1.92,11.336 1.92,11.437 1.92,11.524 1.92,11.609 1.92,11.692 1.92,11.773 1.92,11.844 1.92,11.918 1.92,11.984 1.92,12.051 1.92,12.109 1.92,12.161 1.92,12.222 1.92,12.266 1.92,12.316 1.92,12.352 1.92,12.398 1.92,12.426 1.92,12.461 1.92,12.484 1.92,12.508 1.92,12.527 1.92,12.543 1.92,12.555 1.92,12.559 1.92,12.57 1.92,12.566 1.92,12.559 1.92,12.555 1.92,12.543 1.92,12.531 1.92,12.504 1.92,12.484 1.92,12.461 1.92,12.43 1.92,12.394 1.92,12.353 1.92,12.32 1.92,12.26 1.92,12.22 1.92,12.17 1.92,12.11 1.92,12.05 1.92,11.98 1.92,11.92 1.92,11.84 1.92,11.78 1.92,11.68 1.92,11.62 1.92,11.52 1.92,11.44 1.92,11.34 1.92,11.25 1.92,11.14 1.92,11.04 1.92,10.94"
         style="fill:none;stroke:#000000;stroke-width:7.5;stroke-linecap:butt;stroke-linejoin:miter;stroke-miterlimit:10;stroke-dasharray:none;stroke-opacity:1"
         id="path514" /><path
         d="M 1584,0 V 1728"
         style="fill:none;stroke:#000000;stroke-width:7.5;stroke-linecap:butt;stroke-linejoin:miter;stroke-miterlimit:10;stroke-dasharray:none;stroke-opacity:1"
         id="path516" /><path
         d="m 1584,1778 25,-100 h -50 z"
         style="fill:#000000;fill-opacity:1;fill-rule:nonzero;stroke:none"
         id="path518" /><path
         d="M 0,864 H 3168"
         style="fill:none;stroke:#000000;stroke-width:7.5;stroke-linecap:butt;stroke-linejoin:miter;stroke-miterlimit:10;stroke-dasharray:none;stroke-opacity:1"
         id="path520" /><path
         d="m 3218,864 -100,-25 v 50 z"
         style="fill:#000000;fill-opacity:1;fill-rule:nonzero;stroke:none"
         id="path522" /><g
         id="g524"
         transform="scale(10)"><text
           transform="matrix(1,0,0,-1,136.8,180)"
           style="font-variant:normal;font-weight:normal;font-size:10px;font-family:Times;-inkscape-font-specification:Times-Roman;writing-mode:lr-tb;fill:#000000;fill-opacity:1;fill-rule:nonzero;stroke:none"
           id="text530"><tspan
             x="0 3.8900001 6.6700001 11.67 14.17"
             y="0"
             sodipodi:role="line"
             id="tspan526">sin x</tspan><tspan
             x="188.64"
             y="96.599998"
             id="tspan528">x</tspan></text></g></g></g></svg>
